<svg width="650" height="650" viewBox="0 0 650 650" fill="none" xmlns="http://www.w3.org/2000/svg">
<path d="M325 22C492.342 22 628 157.658 628 325C628 492.342 492.342 628 325 628C157.658 628 22 492.342 22 325C22 157.658 157.658 22 325 22ZM325.546 479.503C258.609 479.503 204.346 506.634 204.346 540.103C204.346 573.571 258.609 600.702 325.546 600.702C392.483 600.702 446.746 573.571 446.746 540.103C446.746 506.634 392.483 479.503 325.546 479.503ZM325 49.2979C224.595 49.2979 143.2 103.56 143.2 170.497C143.2 237.434 224.595 291.697 325 291.697C425.405 291.697 506.8 237.434 506.8 170.497C506.8 103.56 425.405 49.2979 325 49.2979Z" fill="black"/>
</svg>
